<svg xmlns="http://www.w3.org/2000/svg" xmlns:xlink="http://www.w3.org/1999/xlink" viewBox="0,0,256,256" width="650px" height="650px" fill-rule="nonzero"><g fill="#ffffff" fill-rule="nonzero" stroke="none" stroke-width="1" stroke-linecap="butt" stroke-linejoin="miter" stroke-miterlimit="10" stroke-dasharray="" stroke-dashoffset="0" font-family="none" font-weight="none" font-size="none" text-anchor="none" style="mix-blend-mode: normal"><g transform="scale(5.12,5.12)"><path d="M16.08203,4.01563c-0.55078,0.03906 -1.08984,0.17969 -1.58203,0.42969c-1.02344,0.52344 -1.67187,1.50391 -2.03516,2.63672c-0.36719,1.13281 -0.49219,2.45703 -0.46484,3.93359c0.03125,1.75 0.29688,3.72656 0.72656,5.79297c-1.64453,0.30859 -3.15234,0.70313 -4.48828,1.17578c-1.78516,0.62891 -3.26953,1.39453 -4.375,2.33984c-1.10547,0.94141 -1.85547,2.125 -1.92578,3.46875c-0.07422,1.39453 0.70703,2.62891 1.75781,3.66016c1.05469,1.02734 2.44141,1.89453 3.94141,2.48047c0.33594,0.13672 0.71484,0.08203 1,-0.14453c0.28125,-0.22266 0.42188,-0.58203 0.36719,-0.94141c-0.05859,-0.35547 -0.30078,-0.65234 -0.64062,-0.78125c-1.25781,-0.48828 -2.45313,-1.24219 -3.26953,-2.04297c-0.8125,-0.80078 -1.1875,-1.60547 -1.15625,-2.12891c0.03516,-0.67187 0.39453,-1.34375 1.22656,-2.05078c0.82813,-0.71094 2.10938,-1.40234 3.73828,-1.97266c1.23828,-0.4375 2.67969,-0.8125 4.27344,-1.10547c0.46094,1.81641 1.02734,3.67188 1.69531,5.49609c-3.22656,5.79688 -4.9375,10.9375 -4.87109,14.75391c0.03906,2.34766 0.87891,4.28125 2.45313,5.30469c1.07422,0.69531 2.36719,0.95703 3.71484,0.68359c1.34766,-0.27344 2.75781,-1.00781 4.41016,-2.19141c0.30078,-0.20312 0.46484,-0.55078 0.43359,-0.91406c-0.03125,-0.35937 -0.25781,-0.67578 -0.58594,-0.82031c-0.33203,-0.14844 -0.71484,-0.10937 -1.00391,0.10938c-1.53516,1.08984 -2.73828,1.67188 -3.65234,1.85938c-0.91406,0.18359 -1.52734,0.05078 -2.22266,-0.40625c-0.88672,-0.57422 -1.51562,-1.75391 -1.54687,-3.65625c-0.05078,-2.89062 1.24219,-7.24609 3.82813,-12.26953c0.33594,0.80859 0.6875,1.60156 1.05859,2.375c2.66797,5.60547 6.02734,10.19531 9.30078,13.19141c1.63672,1.49609 3.25,2.59766 4.80469,3.20703c1.55469,0.60938 3.12109,0.73438 4.44141,0.0625l0.05469,-0.03125l0.05078,-0.03125c1.12109,-0.75781 1.81641,-2.01172 2.19531,-3.51562c0.375,-1.5 0.45703,-3.28516 0.28125,-5.29687c-0.34766,-4.01953 -1.72656,-8.94531 -4.10937,-14.09766c-0.23047,-0.5 -0.82422,-0.71875 -1.32812,-0.48437c-0.5,0.23047 -0.71875,0.82422 -0.48437,1.32813c2.29688,4.97266 3.60938,9.72656 3.92969,13.42969c0.16016,1.85156 0.07031,3.4375 -0.23047,4.63281c-0.29297,1.16016 -0.76953,1.89453 -1.32422,2.29688c-0.66016,0.30859 -1.55078,0.31641 -2.74609,-0.15625c-1.21875,-0.48047 -2.67578,-1.44141 -4.1875,-2.82422c-3.01953,-2.76172 -6.27344,-7.17578 -8.84766,-12.57031c-0.57422,-1.21484 -1.10937,-2.5 -1.60937,-3.80859c0.60938,-1.06641 1.25391,-2.15234 1.97266,-3.26172c0.71484,-1.09766 1.44922,-2.14844 2.19922,-3.14453c0.25,-0.00391 0.5,-0.01562 0.75391,-0.01562c1.07422,-0.00391 2.17969,0.02734 3.30469,0.08594c5.98828,0.3125 11.36719,1.46094 15.13281,3.03125c1.88672,0.78516 3.36328,1.67969 4.29688,2.5625c0.93359,0.88281 1.29688,1.68359 1.26172,2.42188c-0.03906,0.67578 -0.34766,1.33203 -1.05469,2.01953c-0.71094,0.6875 -1.82031,1.37109 -3.30469,1.94531c-0.34766,0.12109 -0.60547,0.41797 -0.66406,0.78125c-0.0625,0.36328 0.07813,0.73047 0.37109,0.95703c0.28906,0.22266 0.67578,0.27344 1.01172,0.12891c1.66406,-0.64844 3.00391,-1.42969 3.98047,-2.375c0.97266,-0.94922 1.58984,-2.10547 1.65625,-3.35547c0.07422,-1.48047 -0.6875,-2.84375 -1.88672,-3.98047c-1.19531,-1.13281 -2.86328,-2.10547 -4.89453,-2.95312c-4.07031,-1.69531 -9.625,-2.85937 -15.80469,-3.17969c-0.875,-0.04687 -1.73047,-0.05859 -2.58594,-0.07031c1.64844,-1.99609 3.32813,-3.73437 4.94141,-5.12891c2.87891,-2.47656 5.58594,-3.82812 7.26953,-3.89062h0.00391c0.625,-0.02344 1.09375,0.10156 1.48438,0.35156c1.26563,0.82422 2.32813,3.03125 0.60156,6.16406c-0.19141,0.31641 -0.19531,0.71094 -0.00781,1.02734c0.18359,0.31641 0.52734,0.50781 0.89453,0.49609c0.36719,-0.01562 0.69922,-0.22656 0.86328,-0.55469c2.10938,-3.82812 0.97266,-7.35937 -1.26172,-8.80859h-0.00391c-0.77344,-0.50391 -1.69922,-0.71094 -2.64453,-0.67578h-0.00391c-2.55859,0.09766 -5.44531,1.74609 -8.5,4.375c-2.05859,1.77734 -4.17578,4.03906 -6.21094,6.66016c-1.94531,0.0625 -3.80078,0.21484 -5.53125,0.45313c-0.42578,-2.00781 -0.69141,-3.90234 -0.71875,-5.50391c-0.02344,-1.33984 0.10547,-2.47656 0.36719,-3.28906c0.26172,-0.80859 0.61328,-1.24609 1.03906,-1.46484c0.25,-0.125 0.51172,-0.19922 0.82422,-0.22266c1.02344,-0.07812 3.03125,1.01953 5.12891,2.76172c0.27734,0.23438 0.65625,0.30078 0.99219,0.17578c0.33984,-0.12109 0.58594,-0.41797 0.64453,-0.77344c0.05859,-0.35547 -0.07812,-0.71484 -0.35547,-0.94141c-2.21094,-1.83203 -4.33203,-3.38281 -6.55859,-3.21484zM18.70703,18.10938c-0.44922,0.64063 -0.89453,1.28906 -1.33203,1.96484c-0.41406,0.63672 -0.78906,1.26563 -1.17187,1.89453c-0.39062,-1.18359 -0.72656,-2.35547 -1.02734,-3.51562c1.125,-0.15234 2.30469,-0.26562 3.53125,-0.34375zM25,22c-1.65625,0 -3,1.34375 -3,3c0,1.65625 1.34375,3 3,3c1.65625,0 3,-1.34375 3,-3c0,-1.65625 -1.34375,-3 -3,-3z"></path></g></g></svg>